<?xml version="1.0" encoding="utf-8"?>
<!-- Generator: Adobe Illustrator 22.0.1, SVG Export Plug-In . SVG Version: 6.00 Build 0)  -->
<svg version="1.1" xmlns="http://www.w3.org/2000/svg" xmlns:xlink="http://www.w3.org/1999/xlink" x="0px" y="0px"
	 viewBox="0 0 200 200" style="enable-background:new 0 0 200 200;" xml:space="preserve">
<style type="text/css">
	.st0{fill:#666666;}
	.st1{fill:#4D4D4D;}
	.st2{fill:#333333;}
	.st3{fill:#DCB088;}
	.st4{fill:#FFFFFF;}
	.st5{fill:#F2F2F2;}
</style>
<g id="Ebene_1">
	<g>
		<path class="st1" d="M130.5,21.2l-84.9,84.9l42.4,42.4l84.9-84.9L130.5,21.2z"/>
		<polygon points="180,28.3 187.1,21.2 172.9,7.1 165.9,14.1 151.7,0 137.6,14.1 144.6,21.2 137.6,28.3 165.9,56.6 172.9,49.5 
			180,56.6 194.1,42.4 		"/>
		<g>
			<g>
				<rect x="87.2" y="102.9" transform="matrix(0.7071 -0.7071 0.7071 0.7071 -47.0818 94.224)" class="st5" width="6" height="2"/>
			</g>
			<g>
				
					<rect x="111.2" y="78.9" transform="matrix(0.7071 -0.7071 0.7071 0.7071 -23.0401 104.1823)" class="st5" width="6" height="2"/>
			</g>
			<g>
				
					<rect x="113.2" y="100.9" transform="matrix(0.7071 -0.7071 0.7071 0.7071 -40.0401 111.224)" class="st5" width="2" height="6"/>
			</g>
			<g>
				<rect x="89.2" y="76.9" transform="matrix(0.7071 -0.7071 0.7071 0.7071 -30.0818 87.1823)" class="st5" width="2" height="6"/>
			</g>
			<g>
				
					<rect x="84.8" y="84.5" transform="matrix(0.2588 -0.9659 0.9659 0.2588 -20.9501 147.7452)" class="st5" width="2" height="6"/>
			</g>
			<g>
				
					<rect x="117.6" y="93.3" transform="matrix(0.2588 -0.9659 0.9659 0.2588 -5.1086 185.9899)" class="st5" width="2" height="6"/>
			</g>
			<g>
				
					<rect x="94.8" y="107.3" transform="matrix(0.2588 -0.9659 0.9659 0.2588 -32.1517 174.7883)" class="st5" width="6" height="2"/>
			</g>
			<g>
				<rect x="103.6" y="74.5" transform="matrix(0.2588 -0.9659 0.9659 0.2588 6.093 158.9468)" class="st5" width="6" height="2"/>
			</g>
			<g>
				<rect x="82.8" y="95.3" transform="matrix(0.9659 -0.2588 0.2588 0.9659 -22.007 25.4882)" class="st5" width="6" height="2"/>
			</g>
			<g>
				
					<rect x="115.6" y="86.5" transform="matrix(0.9659 -0.2588 0.2588 0.9659 -18.6104 33.6884)" class="st5" width="6" height="2"/>
			</g>
			<g>
				
					<rect x="105.6" y="105.3" transform="matrix(0.9659 -0.2588 0.2588 0.9659 -24.4087 31.2866)" class="st5" width="2" height="6"/>
			</g>
			<g>
				<rect x="96.8" y="72.5" transform="matrix(0.9659 -0.2588 0.2588 0.9659 -16.2086 27.89)" class="st5" width="2" height="6"/>
			</g>
		</g>
	</g>
</g>
<g id="Ebene_2">
	<path class="st3" d="M60,60V40H40V20H20v40h20v90h140v-50V60H60z M60,130V80h20v50H60z M100,130V80h20v50H100z M160,130h-20V80h20
		V130z"/>
	<rect x="45.5" y="155.5" transform="matrix(0.866 -0.5 0.5 0.866 -77.141 53.0866)" class="st3" width="30" height="30"/>
	<rect x="144.5" y="155.5" transform="matrix(0.866 -0.5 0.5 0.866 -63.875 102.5962)" class="st3" width="30" height="30"/>
</g>
</svg>
