<?xml version="1.0" encoding="utf-8"?>
<!-- Generator: Adobe Illustrator 22.0.1, SVG Export Plug-In . SVG Version: 6.00 Build 0)  -->
<svg version="1.1" xmlns="http://www.w3.org/2000/svg" xmlns:xlink="http://www.w3.org/1999/xlink" x="0px" y="0px"
	 viewBox="0 0 200 200" style="enable-background:new 0 0 200 200;" xml:space="preserve">
<style type="text/css">
	.st0{fill:#666666;}
	.st1{fill:#4D4D4D;}
	.st2{fill:#000000;}
	.st5{fill:#F2F2F2;}
</style>

	<path class="st0" d="M70,60l0,120h60l0-120L70,60z"/>
	<path class="st1" d="M70,60l0,120h60l0-120H70z"/>
	<polygon class="st2" points="110,30 110,20 90,20 90,30 70,30 70,50 80,50 80,60 120,60 120,50 130,50 130,30 	"/>
	<g>
		<rect x="99" y="144" class="st5" width="2" height="6"/>
		<rect x="99" y="110" class="st5" width="2" height="6"/>
		<rect x="114" y="129" class="st5" width="6" height="2"/>
		<rect x="80" y="129" class="st5" width="6" height="2"/>
		<rect x="82.3" y="137.5" transform="matrix(0.866 -0.5 0.5 0.866 -57.825 61.1943)" class="st5" width="6" height="2"/>
		<rect x="111.7" y="120.5" transform="matrix(0.866 -0.5 0.5 0.866 -45.3801 73.6392)" class="st5" width="6" height="2"/>
		<rect x="107.5" y="141.7" transform="matrix(0.866 -0.5 0.5 0.866 -57.825 73.6392)" class="st5" width="2" height="6"/>
		<rect x="90.5" y="112.3" transform="matrix(0.866 -0.5 0.5 0.866 -45.3801 61.1943)" class="st5" width="2" height="6"/>
		<rect x="88.5" y="143.7" transform="matrix(0.5 -0.866 0.866 0.5 -79.5833 151.6026)" class="st5" width="6" height="2"/>
		<rect x="105.5" y="114.3" transform="matrix(0.5 -0.866 0.866 0.5 -45.5833 151.6026)" class="st5" width="6" height="2"/>
		<rect x="113.7" y="135.5" transform="matrix(0.5 -0.866 0.866 0.5 -62.5833 168.6026)" class="st5" width="2" height="6"/>
		<rect x="84.3" y="118.5" transform="matrix(0.5 -0.866 0.866 0.5 -62.5833 134.6026)" class="st5" width="2" height="6"/>
	</g>
</svg>
